<svg width="500" height="3080" viewBox="0 0 500 3080" xmlns="http://www.w3.org/2000/svg" font-family="'Helvetica Neue', Helvetica, Arial, sans-serif">
  <defs>
    <linearGradient id="grad1" x1="0%" y1="0%" x2="0%" y2="100%">
      <stop offset="0%" style="stop-color:#3A7BD5;stop-opacity:1" />
      <stop offset="100%" style="stop-color:#2E4DA7;stop-opacity:1" />
    </linearGradient>
    <linearGradient id="sectionGrad" x1="0%" y1="0%" x2="100%" y2="0%">
      <stop offset="0%" style="stop-color:#3A7BD5;stop-opacity:1" />
      <stop offset="100%" style="stop-color:#2E4DA7;stop-opacity:0.9" />
    </linearGradient>
    <filter id="dropShadow">
      <feDropShadow dx="0" dy="2" stdDeviation="2" flood-opacity="0.15"/>
    </filter>
    <style>
      .title { font-size: 28px; font-weight: 700; fill: #FFFFFF; text-anchor: middle; letter-spacing: 1px; }
      .subtitle { font-size: 18px; fill: #FFFFFF; text-anchor: middle; letter-spacing: 0.5px; }
      .header-text { font-size: 14px; fill: #333333; }
      .section-title { font-size: 20px; font-weight: 600; fill: #FFFFFF; text-anchor: middle; letter-spacing: 0.5px; }
      .table-header { font-size: 15px; font-weight: 600; fill: #2E4DA7; text-anchor: start; }
      .table-content { font-size: 14px; fill: #333333; text-anchor: start; line-height: 1.5; }
      .highlight { font-weight: 600; fill: #FF7043; }
      .note-title { font-size: 14px; font-weight: 600; fill: #2E4DA7; }
      .note-content { font-size: 14px; fill: #454545; line-height: 1.6; }
      .section-icon { font-size: 22px; fill: #FFFFFF; }
      .contentBox { fill: #FFFFFF; rx: 8; ry: 8; filter: url(#dropShadow); }
      .sectionHeader { fill: url(#sectionGrad); rx: 8; ry: 8; }
      .tableHeaderCell { fill: #EEF5FF; rx: 4; ry: 4; }
      .tableContentCell { fill: #FFFFFF; rx: 4; ry: 4; }
      .bulletPoint { font-size: 14px; fill: #FF7043; }
      .warning-section { fill: #FF5252; rx: 8; ry: 8; }
    </style>
  </defs>
  <!-- Background Gradient -->
  <rect width="500" height="3080" fill="#F5F7FA" />
  <!-- Header Section with updated gradient -->
  <rect x="0" y="0" width="500" height="110" fill="url(#grad1)" />
  <text x="250" y="50" class="title">📅 个人所得税汇算清缴 so easy 👍</text>
  <text x="250" y="80" class="subtitle"></text>
  <!-- Main Content Area with shadow effect -->
  <rect x="20" y="120" width="460" height="2940" class="contentBox" />
  <!-- Section 1: Filing Procedure -->
  <rect x="40" y="140" width="420" height="40" class="sectionHeader" />
  <text x="60" y="165" class="section-icon">📱</text>
  <text x="250" y="165" class="section-title">汇缴操作</text>
  <text x="50" y="200" class="table-content">
    <tspan x="50" dy="1.4em">时间 ⏰：2025年3月1日至2025年6月30日</tspan>
    <tspan x="50" dy="1.6em">途径 💻：个人所得税APP、自然人电子税务局系统完成申报。</tspan>
  </text>
  <!-- Section 2: Special Additional Deductions Intro -->
  <rect x="40" y="250" width="420" height="40" class="sectionHeader" />
  <text x="60" y="275" class="section-icon">✅</text>
  <text x="250" y="275" class="section-title">专项附加扣除能填尽填</text>
  <text x="50" y="305" class="table-content">
    <tspan x="50" dy="1.4em">提示 💡：专项附加需填写配偶信息 💑</tspan>
  </text>
  <!-- Deduction Tables Start Here with updated style -->
  <g transform="translate(40, 340)">
    <rect width="420" height="40" class="sectionHeader" />
    <text x="25" y="25" class="section-icon">🎓</text>
    <text x="210" y="25" class="section-title">子女教育</text>
<rect x="0" y="45" width="100" height="100" class="tableHeaderCell"/>
<text x="15" y="95" class="table-header">扣除范围</text>
<rect x="100" y="45" width="320" height="100" class="tableContentCell"/>
<text x="110" y="70" class="table-content">
  <tspan x="110" dy="0"><text x="110" class="bulletPoint">•</text> 3岁至博士研究生阶段的子女 </tspan>
  <tspan x="110" dy="1.5em">  (学前教育至全日制学历教育 🏫)。</tspan>
  <tspan x="110" dy="1.5em"><text x="110" class="bulletPoint">•</text> 境内 🇨🇳 或境外 🌍 接受教育均可。</tspan>
</text>

<rect x="0" y="150" width="100" height="45" class="tableHeaderCell"/>
<text x="15" y="175" class="table-header">扣除标准</text>
<rect x="100" y="150" width="320" height="45" class="tableContentCell"/>
<text x="110" y="175" class="table-content">每个子女每月定额扣除 <tspan class="highlight">2000元</tspan> 💰。</text>

<rect x="0" y="200" width="100" height="60" class="tableHeaderCell"/>
<text x="15" y="230" class="table-header">扣除主体</text>
<rect x="100" y="200" width="320" height="60" class="tableContentCell"/>
<text x="110" y="220" class="table-content">
  <tspan x="110" dy="0"><text x="110" class="bulletPoint">•</text> 父母双方 👨‍👩‍👧‍👦 各扣<tspan class="highlight">50%</tspan>，或</tspan>
  <tspan x="110" dy="1.5em"><text x="110" class="bulletPoint">•</text> 由一方按扣除标准的<tspan class="highlight">100%</tspan>全额扣除。</tspan>
</text>

<rect x="0" y="265" width="100" height="75" class="tableHeaderCell"/>
<text x="15" y="305" class="table-header">注意事项</text>
<rect x="100" y="265" width="320" height="75" class="tableContentCell"/>
<text x="110" y="285" class="table-content">
  <tspan x="110" dy="0"><text x="110" class="bulletPoint">•</text> 需留存子女学籍证明 📄。</tspan>
  <tspan x="110" dy="1.5em"><text x="110" class="bulletPoint">•</text> 境外教育需提供录取通知书 📜、</tspan>
  <tspan x="110" dy="1.5em">  留学签证 🛂 等证明。</tspan>
</text>
Use code with caution.
  </g>
  <!-- 继续教育部分，应用新样式 -->
  <g transform="translate(40, 680)">
    <rect width="420" height="40" class="sectionHeader" />
    <text x="25" y="25" class="section-icon">📚</text>
    <text x="210" y="25" class="section-title">继续教育</text>
<rect x="0" y="45" width="100" height="100" class="tableHeaderCell"/>
<text x="15" y="85" class="table-header">扣除范围</text>
<rect x="100" y="45" width="320" height="100" class="tableContentCell"/>
<text x="110" y="65" class="table-content">
  <tspan x="110" dy="0"><text x="110" class="bulletPoint">•</text> 学历(学位)继续教育 🎓：</tspan>
  <tspan x="120" dy="1.5em">境内本科及以下学历(学位)教育。</tspan>
  <tspan x="110" dy="1.5em"><text x="110" class="bulletPoint">•</text> 职业资格继续教育 📜：</tspan>
  <tspan x="120" dy="1.5em">取得人社部《国家职业资格目录》证书。</tspan>
</text>

<rect x="0" y="150" width="100" height="75" class="tableHeaderCell"/>
<text x="15" y="180" class="table-header">扣除标准</text>
<rect x="100" y="150" width="320" height="75" class="tableContentCell"/>
<text x="110" y="170" class="table-content">
  <tspan x="110" dy="0"><text x="110" class="bulletPoint">•</text> 学历教育：每月<tspan class="highlight">400元</tspan> 💰 (最长48个月 ⏳)。</tspan>
  <tspan x="110" dy="1.5em"><text x="110" class="bulletPoint">•</text> 职业资格教育：取得证书当年</tspan>
  <tspan x="110" dy="1.5em">  一次性扣除 <tspan class="highlight">3600元</tspan> 💰。</tspan>
</text>

<rect x="0" y="230" width="100" height="55" class="tableHeaderCell"/>
<text x="15" y="255" class="table-header">扣除主体</text>
<rect x="100" y="230" width="320" height="55" class="tableContentCell"/>
<text x="110" y="250" class="table-content">
  <tspan x="110" dy="0"><text x="110" class="bulletPoint">•</text> 纳税人本人 👤 (职业资格教育)。</tspan>
  <tspan x="110" dy="1.5em"><text x="110" class="bulletPoint">•</text> 本人或其父母 👨‍👩‍👧‍👦 (学历教育)。</tspan>
</text>

<rect x="0" y="290" width="100" height="65" class="tableHeaderCell"/>
<text x="15" y="325" class="table-header">注意事项</text>
<rect x="100" y="290" width="320" height="65" class="tableContentCell"/>
<text x="110" y="310" class="table-content">
  <tspan x="110" dy="0"><text x="110" class="bulletPoint">•</text> 职业资格证书需在人社部目录内 ✅。</tspan>
  <tspan x="110" dy="1.5em"><text x="110" class="bulletPoint">•</text> 同一学历继续教育不可重复扣除 ❌。</tspan>
</text>
Use code with caution.
  </g>
  <!-- 大病医疗部分，应用新样式 -->
  <g transform="translate(40, 1055)">
    <rect width="420" height="40" class="sectionHeader" />
    <text x="25" y="25" class="section-icon">🏥</text>
    <text x="210" y="25" class="section-title">大病医疗</text>
<rect x="0" y="45" width="100" height="100" class="tableHeaderCell"/>
<text x="15" y="85" class="table-header">扣除范围</text>
<rect x="100" y="45" width="320" height="100" class="tableContentCell"/>
<text x="110" y="65" class="table-content">
  <tspan x="110" dy="0"><text x="110" class="bulletPoint">•</text> 纳税人本人、配偶 💑 或未成年子女 🧒 医疗费。</tspan>
  <tspan x="110" dy="1.5em"><text x="110" class="bulletPoint">•</text> 医保相关支出 🧾，扣除报销后个人负担</tspan>
  <tspan x="110" dy="1.5em">  累计超过 <tspan class="highlight">1.5万元</tspan> 💰 的部分。</tspan>
</text>

<rect x="0" y="150" width="100" height="40" class="tableHeaderCell"/>
<text x="15" y="175" class="table-header">扣除标准</text>
<rect x="100" y="150" width="320" height="40" class="tableContentCell"/>
<text x="110" y="175" class="table-content">在 <tspan class="highlight">8万元</tspan>限额内据实扣除 💰。</text>

<rect x="0" y="195" width="100" height="70" class="tableHeaderCell"/>
<text x="15" y="230" class="table-header">扣除主体</text>
<rect x="100" y="195" width="320" height="70" class="tableContentCell"/>
<text x="110" y="215" class="table-content">
  <tspan x="110" dy="0"><text x="110" class="bulletPoint">•</text> 纳税人本人或其配偶 💑。</tspan>
  <tspan x="110" dy="1.5em"><text x="110" class="bulletPoint">•</text> 未成年子女 🧒 医疗费用由父母一方扣除。</tspan>
</text>

<rect x="0" y="270" width="100" height="75" class="tableHeaderCell"/>
<text x="15" y="310" class="table-header">注意事项</text>
<rect x="100" y="270" width="320" height="75" class="tableContentCell"/>
<text x="110" y="290" class="table-content">
  <tspan x="110" dy="0"><text x="110" class="bulletPoint">•</text> 需留存医疗收费票据 🧾、医保结算单等。</tspan>
  <tspan x="110" dy="1.5em"><text x="110" class="bulletPoint">•</text> 只能在年度汇算清缴时扣除 🗓️，</tspan>
  <tspan x="110" dy="1.5em">  预缴时不可扣 ❌。</tspan>
</text>
Use code with caution.
  </g>
  <!-- 住房贷款利息部分，应用新样式 -->
  <g transform="translate(40, 1410)">
    <rect width="420" height="40" class="sectionHeader" />
    <text x="25" y="25" class="section-icon">🏠</text>
    <text x="210" y="25" class="section-title">住房贷款利息</text>
<rect x="0" y="45" width="100" height="55" class="tableHeaderCell"/>
<text x="15" y="75" class="table-header">扣除范围</text>
<rect x="100" y="45" width="320" height="55" class="tableContentCell"/>
<text x="110" y="65" class="table-content">
  <tspan x="110" dy="0"><text x="110" class="bulletPoint">•</text> 纳税人本人或配偶 💑 的</tspan>
  <tspan x="110" dy="1.5em">  首套住房商业贷款利息 💰。</tspan>
</text>

<rect x="0" y="105" width="100" height="55" class="tableHeaderCell"/>
<text x="15" y="135" class="table-header">扣除标准</text>
<rect x="100" y="105" width="320" height="55" class="tableContentCell"/>
<text x="110" y="125" class="table-content">
  <tspan x="110" dy="0"><text x="110" class="bulletPoint">•</text> 每月定额扣除 <tspan class="highlight">1000元</tspan> 💰。</tspan>
  <tspan x="110" dy="1.5em"><text x="110" class="bulletPoint">•</text> 最长不超过 240个月 (20年) ⏳。</tspan>
</text>

<rect x="0" y="165" width="100" height="75" class="tableHeaderCell"/>
<text x="15" y="205" class="table-header">扣除主体</text>
<rect x="100" y="165" width="320" height="75" class="tableContentCell"/>
<text x="110" y="185" class="table-content">
  <tspan x="110" dy="0"><text x="110" class="bulletPoint">•</text> 纳税人本人或配偶 💑。</tspan>
  <tspan x="110" dy="1.5em"><text x="110" class="bulletPoint">•</text> 婚前各自购房：可各自扣<tspan class="highlight">50%</tspan>，或</tspan>
  <tspan x="110" dy="1.5em">  由一方全额扣 <tspan class="highlight">100%</tspan>。</tspan>
</text>

<rect x="0" y="245" width="100" height="75" class="tableHeaderCell"/>
<text x="15" y="285" class="table-header">注意事项</text>
<rect x="100" y="245" width="320" height="75" class="tableContentCell"/>
<text x="110" y="265" class="table-content">
  <tspan x="110" dy="0"><text x="110" class="bulletPoint">•</text> 需留存贷款合同 📄、还款凭证 🧾。</tspan>
  <tspan x="110" dy="1.5em"><text x="110" class="bulletPoint">•</text> 不得与住房租金扣除同时享受 ❌。</tspan>
</text>
Use code with caution.
  </g>
  <!-- 住房租金部分，应用新样式 -->
  <g transform="translate(40, 1745)">
    <rect width="420" height="40" class="sectionHeader" />
    <text x="25" y="25" class="section-icon">🔑</text>
    <text x="210" y="25" class="section-title">住房租金</text>
<rect x="0" y="45" width="100" height="55" class="tableHeaderCell"/>
<text x="15" y="75" class="table-header">扣除范围</text>
<rect x="100" y="45" width="320" height="55" class="tableContentCell"/>
<text x="110" y="65" class="table-content">
  <tspan x="110" dy="0"><text x="110" class="bulletPoint">•</text> 纳税人在主要工作城市 🏙️ 无自有住房</tspan>
  <tspan x="110" dy="1.5em">  而发生的租房支出 💸。</tspan>
</text>

<rect x="0" y="105" width="100" height="40" class="tableHeaderCell"/>
<text x="15" y="130" class="table-header">扣除标准</text>
<rect x="100" y="105" width="320" height="40" class="tableContentCell"/>
<text x="110" y="130" class="table-content">📍 <tspan class="highlight">宁波</tspan>每月 <tspan class="highlight">1500元</tspan> 💰。</text>

<rect x="0" y="150" width="100" height="55" class="tableHeaderCell"/>
<text x="15" y="180" class="table-header">扣除主体</text>
<rect x="100" y="150" width="320" height="55" class="tableContentCell"/>
<text x="110" y="170" class="table-content">
  <tspan x="110" dy="0"><text x="110" class="bulletPoint">•</text> 签订租赁合同的纳税人 👤。</tspan>
  <tspan x="110" dy="1.5em"><text x="110" class="bulletPoint">•</text> 夫妻同城 💑 只能一方扣除 ☝️。</tspan>
</text>

<rect x="0" y="210" width="100" height="75" class="tableHeaderCell"/>
<text x="15" y="250" class="table-header">注意事项</text>
<rect x="100" y="210" width="320" height="75" class="tableContentCell"/>
<text x="110" y="230" class="table-content">
  <tspan x="110" dy="0"><text x="110" class="bulletPoint">•</text> 需留存住房租赁合同 📜、协议</tspan>
  <tspan x="110" dy="1.5em">  或付款记录 🧾。</tspan>
  <tspan x="110" dy="1.5em"><text x="110" class="bulletPoint">•</text> 不得与住房贷款利息扣除同时享受 ❌。</tspan>
</text>
Use code with caution.
  </g>
  <!-- 赡养老人部分，应用新样式 -->
  <g transform="translate(40, 2040)">
    <rect width="420" height="40" class="sectionHeader" />
    <text x="25" y="25" class="section-icon">👴</text>
    <text x="210" y="25" class="section-title">赡养老人</text>
<rect x="0" y="45" width="100" height="85" class="tableHeaderCell"/>
<text x="15" y="90" class="table-header">扣除范围</text>
<rect x="100" y="45" width="320" height="85" class="tableContentCell"/>
<text x="110" y="65" class="table-content">
  <tspan x="110" dy="0"><text x="110" class="bulletPoint">•</text> 赡养年满60岁的父母 ❤️。</tspan>
  <tspan x="110" dy="1.5em"><text x="110" class="bulletPoint">•</text> 或子女均已去世的年满60岁的</tspan>
  <tspan x="110" dy="1.5em">  祖父母、外祖父母 ❤️。</tspan>
</text>

<rect x="0" y="135" width="100" height="75" class="tableHeaderCell"/>
<text x="15" y="175" class="table-header">扣除标准</text>
<rect x="100" y="135" width="320" height="75" class="tableContentCell"/>
<text x="110" y="155" class="table-content">
  <tspan x="110" dy="0"><text x="110" class="bulletPoint">•</text> 独生子女 ☝️：每月 <tspan class="highlight">3000元</tspan> 💰；</tspan>
  <tspan x="110" dy="1.5em"><text x="110" class="bulletPoint">•</text> 非独生子女 👨‍👩‍👧‍👦：每人每月不超过</tspan>
  <tspan x="110" dy="1.5em">  <tspan class="highlight">1500元</tspan> 💰 (需签分摊协议 ✍️)。</tspan>
</text>

<rect x="0" y="215" width="100" height="55" class="tableHeaderCell"/>
<text x="15" y="245" class="table-header">扣除主体</text>
<rect x="100" y="215" width="320" height="55" class="tableContentCell"/>
<text x="110" y="235" class="table-content">
  <tspan x="110" dy="0"><text x="110" class="bulletPoint">•</text> 纳税人本人 👤。</tspan>
  <tspan x="110" dy="1.5em"><text x="110" class="bulletPoint">•</text> 兄弟姐妹 🤝 需协商分摊比例。</tspan>
</text>

<rect x="0" y="275" width="100" height="75" class="tableHeaderCell"/>
<text x="15" y="315" class="table-header">注意事项</text>
<rect x="100" y="275" width="320" height="75" class="tableContentCell"/>
<text x="110" y="295" class="table-content">
  <tspan x="110" dy="0"><text x="110" class="bulletPoint">•</text> 需留存赡养协议 📄 或共同赡养人信息。</tspan>
  <tspan x="110" dy="1.5em"><text x="110" class="bulletPoint">•</text> 赡养多位老人不叠加扣除 ❌。</tspan>
</text>
Use code with caution.
  </g>
  <!-- 3岁以下婴幼儿照护部分，应用新样式 -->
  <g transform="translate(40, 2390)">
    <rect width="420" height="40" class="sectionHeader" />
    <text x="25" y="25" class="section-icon">👶</text>
    <text x="210" y="25" class="section-title">3岁以下婴幼儿照护</text>
<rect x="0" y="45" width="100" height="40" class="tableHeaderCell"/>
<text x="15" y="70" class="table-header">扣除范围</text>
<rect x="100" y="45" width="320" height="40" class="tableContentCell"/>
<text x="110" y="70" class="table-content">纳税人照护3岁以下婴幼儿的支出 🍼。</text>

<rect x="0" y="90" width="100" height="40" class="tableHeaderCell"/>
<text x="15" y="115" class="table-header">扣除标准</text>
<rect x="100" y="90" width="320" height="40" class="tableContentCell"/>
<text x="110" y="115" class="table-content">每个婴幼儿每月定额扣除 <tspan class="highlight">2000元</tspan> 💰。</text>

<rect x="0" y="135" width="100" height="55" class="tableHeaderCell"/>
<text x="15" y="165" class="table-header">扣除主体</text>
<rect x="100" y="135" width="320" height="55" class="tableContentCell"/>
<text x="110" y="155" class="table-content">
  <tspan x="110" dy="0"><text x="110" class="bulletPoint">•</text> 父母双方 👨‍👩‍👧‍👦 各扣<tspan class="highlight">50%</tspan>，或</tspan>
  <tspan x="110" dy="1.5em"><text x="110" class="bulletPoint">•</text> 由一方按扣除标准的<tspan class="highlight">100%</tspan>全额扣除。</tspan>
</text>

<rect x="0" y="195" width="100" height="55" class="tableHeaderCell"/>
<text x="15" y="225" class="table-header">注意事项</text>
<rect x="100" y="195" width="320" height="55" class="tableContentCell"/>
<text x="110" y="215" class="table-content">
  <tspan x="110" dy="0"><text x="110" class="bulletPoint">•</text> 需填报婴幼儿出生医学证明 📄 等</tspan>
  <tspan x="110" dy="1.5em">  身份信息。</tspan>
</text>
Use code with caution.
  </g>
  <!-- 个人养老金部分，应用新样式 -->
  <g transform="translate(40, 2655)">
    <rect width="420" height="40" class="sectionHeader" />
    <text x="25" y="25" class="section-icon">🏦</text>
    <text x="210" y="25" class="section-title">个人养老金</text>
<rect x="0" y="45" width="420" height="85" class="tableContentCell"/>
<text x="15" y="70" class="table-content">
  <tspan x="15" dy="0"><text x="15" class="bulletPoint">•</text> 每年缴纳上限 <tspan class="highlight">12000元</tspan> 💰。</tspan>
  <tspan x="15" dy="1.5em"><text x="15" class="bulletPoint">•</text> 若在2024年 🗓️ 存入，则需要在本次汇算清缴时</tspan>
  <tspan x="15" dy="1.5em">  进行申报，可在税前扣除，享受退税 ✅。</tspan>
</text>
Use code with caution.
  </g>
  <!-- 通用注意事项部分，应用新样式 -->
  <g transform="translate(40, 2775)">
    <rect width="420" height="40" class="sectionHeader" />
    <text x="25" y="25" class="section-icon">📌</text>
    <text x="210" y="25" class="section-title">通用注意事项</text>
<rect x="0" y="45" width="420" height="150" class="tableContentCell"/>
<text x="15" y="65" class="note-content">
  <tspan x="15" dy="1.6em"><text x="15" class="note-title">• 申报材料 📄：</text>所有扣除需<tspan class="highlight">留存相关证明材料备查</tspan>（如发票、合同、协议等）。</tspan>
  <tspan x="15" dy="1.6em"><text x="15" class="note-title">• 扣除时间 ⏳：</text>符合条件的年度内扣除，逾期不可补扣（大病医疗除外）。</tspan>
  <tspan x="15" dy="1.6em"><text x="15" class="note-title">• 重复申报风险 ❌：</text>同一项目不得重复享受（如住房贷款利息与租金）。</tspan>
  <tspan x="15" dy="1.6em"><text x="15" class="note-title">• 虚假申报责任 ⚖️：</text>虚报信息将影响纳税信用并可能承担法律责任。</tspan>
</text>
Use code with caution.
  </g>
  <!-- 重要提醒部分，应用新样式 -->
  <g transform="translate(40, 2935)">
    <rect width="420" height="40" class="warning-section" />
    <text x="25" y="25" class="section-icon">⚠️</text>
    <text x="210" y="25" class="section-title">重要提醒</text>
<rect x="0" y="45" width="420" height="70" fill="#FFF6F6" rx="4" ry="4"/>
<text x="15" y="70" class="table-content" fill="#FF5252" font-weight="600">
  <tspan x="15" dy="0">务必通过官方渠道 ✅（个人所得税APP 📱、</tspan>
  <tspan x="15" dy="1.5em">自然人电子税务局 💻）如实申报，谨防诈骗 🚫👮！</tspan>
</text>
Use code with caution.
  </g>
  <!-- 最后添加设计师信息 -->
  <g transform="translate(40, 3030)">
    <text x="210" y="20" text-anchor="middle" font-size="12" fill="#777777">
      平安银行 · 宁波
    </text>
  </g>
</svg>